<svg width="26" height="20" viewBox="0 0 26 20" fill="none" xmlns="http://www.w3.org/2000/svg">
<path d="M21.3203 1.99297C19.7151 1.25643 17.9937 0.713775 16.194 0.402976C16.1612 0.396978 16.1285 0.411968 16.1116 0.441949C15.8902 0.835693 15.645 1.34936 15.4732 1.75311C13.5375 1.4633 11.6116 1.4633 9.71552 1.75311C9.54377 1.34039 9.28964 0.835693 9.06727 0.441949C9.05039 0.412968 9.01764 0.397978 8.98487 0.402976C7.18608 0.712782 5.46472 1.25543 3.85851 1.99297C3.84461 1.99896 3.83269 2.00897 3.82478 2.02195C0.559732 6.89986 -0.334701 11.6579 0.104078 16.3569C0.106063 16.3799 0.118968 16.4019 0.136837 16.4159C2.29102 17.9978 4.37772 18.9582 6.42566 19.5948C6.45844 19.6048 6.49317 19.5928 6.51402 19.5658C6.99847 18.9043 7.4303 18.2067 7.80056 17.4732C7.82241 17.4302 7.80155 17.3792 7.7569 17.3622C7.07193 17.1024 6.4197 16.7856 5.79231 16.4259C5.74268 16.3969 5.73871 16.3259 5.78436 16.2919C5.91639 16.193 6.04845 16.09 6.17452 15.9861C6.19733 15.9671 6.22911 15.9631 6.25593 15.9751C10.3776 17.8569 14.8399 17.8569 18.913 15.9751C18.9398 15.9621 18.9716 15.9661 18.9954 15.9851C19.1215 16.089 19.2535 16.193 19.3865 16.2919C19.4322 16.3259 19.4292 16.3969 19.3796 16.4259C18.7522 16.7926 18.1 17.1024 17.414 17.3613C17.3693 17.3782 17.3495 17.4302 17.3713 17.4732C17.7495 18.2057 18.1814 18.9033 18.6569 19.5649C18.6767 19.5928 18.7125 19.6048 18.7452 19.5948C20.8031 18.9582 22.8898 17.9978 25.044 16.4159C25.0628 16.4019 25.0748 16.3809 25.0767 16.3579C25.6019 10.9253 24.1972 6.20631 21.3531 2.02294C21.3461 2.00897 21.3342 1.99896 21.3203 1.99297ZM8.41607 13.4957C7.17515 13.4957 6.15267 12.3564 6.15267 10.9573C6.15267 9.55817 7.15532 8.41892 8.41607 8.41892C9.68672 8.41892 10.6993 9.56818 10.6794 10.9573C10.6794 12.3564 9.67679 13.4957 8.41607 13.4957ZM16.7846 13.4957C15.5437 13.4957 14.5212 12.3564 14.5212 10.9573C14.5212 9.55817 15.5239 8.41892 16.7846 8.41892C18.0553 8.41892 19.0678 9.56818 19.048 10.9573C19.048 12.3564 18.0553 13.4957 16.7846 13.4957Z" fill="white"/>
</svg>
