<svg width="26" height="22" viewBox="0 0 26 22" fill="none" xmlns="http://www.w3.org/2000/svg">
<path d="M25.0226 3.06979C24.6269 3.24528 24.2202 3.39338 23.8045 3.51362C24.2966 2.95711 24.6718 2.3023 24.9008 1.58574C24.9522 1.42512 24.8989 1.24932 24.7669 1.14427C24.6351 1.03914 24.4519 1.02655 24.3067 1.11258C23.424 1.63611 22.4717 2.01234 21.4731 2.23235C20.4673 1.24948 19.1011 0.690125 17.6888 0.690125C14.7076 0.690125 12.2822 3.11545 12.2822 6.09655C12.2822 6.33134 12.2971 6.56483 12.3265 6.79507C8.62709 6.47027 5.18787 4.65198 2.82615 1.75497C2.74199 1.65171 2.61232 1.59606 2.47957 1.6067C2.34674 1.6171 2.2274 1.692 2.16029 1.80712C1.68129 2.62905 1.42805 3.56911 1.42805 4.52557C1.42805 5.82829 1.89317 7.06431 2.71477 8.03012C2.46495 7.9436 2.22252 7.83546 1.99114 7.70702C1.86693 7.63788 1.71533 7.63894 1.59192 7.7097C1.46843 7.78046 1.39101 7.91061 1.38776 8.05287C1.38719 8.07683 1.38719 8.1008 1.38719 8.12509C1.38719 10.0696 2.43375 11.8203 4.03382 12.7745C3.89636 12.7608 3.75898 12.7409 3.62249 12.7148C3.48178 12.6879 3.33709 12.7372 3.24219 12.8445C3.14714 12.9518 3.1157 13.1013 3.15949 13.2378C3.75175 15.0868 5.27658 16.4469 7.11997 16.8616C5.59107 17.8192 3.84266 18.3208 2.00723 18.3208C1.62425 18.3208 1.23908 18.2982 0.862121 18.2536C0.674857 18.2314 0.4958 18.342 0.432024 18.52C0.368249 18.6982 0.435843 18.8968 0.595159 18.999C2.95305 20.5108 5.67946 21.3099 8.47948 21.3099C13.984 21.3099 17.4274 18.7142 19.3468 16.5367C21.7402 13.8215 23.1128 10.2276 23.1128 6.67654C23.1128 6.52819 23.1106 6.37838 23.106 6.22906C24.0503 5.51762 24.8633 4.65662 25.5248 3.667C25.6253 3.51671 25.6144 3.31807 25.498 3.17971C25.3818 3.04128 25.188 2.99651 25.0226 3.06979Z" fill="white"/>
</svg>
