<svg xmlns="http://www.w3.org/2000/svg" xmlns:xlink="http://www.w3.org/1999/xlink" id="Layer_1" x="0px" y="0px" viewBox="0 0 506.9 991.4" style="enable-background:new 0 0 506.9 991.4;" xml:space="preserve">
<style type="text/css">
	.st0{fill:#FFFFFF;}
	.st1{fill:none;stroke:#DCDDDF;stroke-width:1.5;stroke-miterlimit:10;}
</style>
<g id="Group_4846" transform="translate(173.768 -1252.647)">
	<g id="Group_4165" transform="translate(8.465 -1252.112)">
		<g id="Group_4156" transform="translate(-1560.233 2348.961)">
			<g transform="matrix(1, 0, 0, 1, 1378, 155.8)">
				<path id="Path_3737-3_00000055698297111057652670000001483798588584728762_" class="st0" d="M473.1,223.2l31.1,54l-31.1,54      h-62.2l-31.1-54l31.1-54L473.1,223.2L473.1,223.2z"></path>
			</g>
			<g id="Group_4152" transform="translate(1475.83 209.518)">
				<g transform="matrix(1, 0, 0, 1, -97.83, -53.72)">
					<path id="Path_3742-3_00000091695590615755574240000007091951761557510816_" class="st0" d="M286.4,114.4l31.1,54l-31.1,54       h-62.2l-31.1-54l31.1-54C224.2,114.4,286.4,114.4,286.4,114.4z"></path>
				</g>
				<g transform="matrix(1, 0, 0, 1, -97.83, -53.72)">
					<path id="Path_3740-3_00000119100883611583983840000013451548173999257217_" class="st0" d="M379.3,60.3l31.1,54l-31.1,54H317       l-31.1-54l31.1-54C317,60.3,379.3,60.3,379.3,60.3z"></path>
				</g>
			</g>
			<g transform="matrix(1, 0, 0, 1, 1378, 155.8)">
				<path id="Path_3741-3_00000181056063564122221320000000871156785566793621_" class="st0" d="M284.4,333.8l31.1,54l-31.1,54      h-62.2l-31.1-54l31.1-54H284.4z"></path>
			</g>
		</g>
		<g id="Group_3904" transform="translate(-178.768 2505.51)">
			<g id="Group_1906" transform="translate(188.624)">
				<g id="Group_1860">
					<line id="Line_76" class="st1" x1="92.7" y1="6.6" x2="61.4" y2="60.9"></line>
					<line id="Line_77" class="st1" x1="40.5" y1="115.2" x2="9.2" y2="60.9"></line>
					<line id="Line_78" class="st1" x1="19.7" y1="60.9" x2="51" y2="115.2"></line>
					<line id="Line_79" class="st1" x1="61.4" y1="115.2" x2="30.1" y2="60.9"></line>
					<line id="Line_80" class="st1" x1="40.5" y1="60.9" x2="71.8" y2="115.2"></line>
					<line id="Line_81" class="st1" x1="82.2" y1="115.2" x2="51" y2="60.9"></line>
					<line id="Line_82" class="st1" x1="92.7" y1="115.2" x2="61.4" y2="60.9"></line>
					<line id="Line_83" class="st1" x1="-1.2" y1="60.9" x2="61.4" y2="60.9"></line>
					<line id="Line_84" class="st1" x1="66.6" y1="51.9" x2="4" y2="51.9"></line>
					<line id="Line_85" class="st1" x1="71.8" y1="42.8" x2="9.2" y2="42.8"></line>
					<line id="Line_86" class="st1" x1="82.2" y1="24.7" x2="19.7" y2="24.7"></line>
					<line id="Line_87" class="st1" x1="14.5" y1="33.8" x2="77" y2="33.8"></line>
					<line id="Line_88" class="st1" x1="24.9" y1="15.7" x2="87.5" y2="15.7"></line>
					<line id="Line_89" class="st1" x1="118.7" y1="51.9" x2="87.5" y2="106.1"></line>
					<line id="Line_90" class="st1" x1="82.2" y1="97.1" x2="113.5" y2="42.8"></line>
					<line id="Line_91" class="st1" x1="108.3" y1="33.8" x2="77" y2="88"></line>
					<line id="Line_92" class="st1" x1="71.8" y1="79" x2="103.1" y2="24.7"></line>
					<line id="Line_93" class="st1" x1="97.9" y1="15.7" x2="66.6" y2="70"></line>
					<path id="Path_1906" class="st1" d="M30,6.6h62.7L124,60.9l-31.3,54.3H30L-1.3,60.9L30,6.6z"></path>
				</g>
				<g id="Group_1861" transform="translate(94.312 54.284)">
					<line id="Line_76-2" class="st1" x1="-96" y1="6.6" x2="-127.2" y2="60.9"></line>
					<line id="Line_77-2" class="st1" x1="-148.1" y1="115.2" x2="-179.4" y2="60.9"></line>
					<line id="Line_78-2" class="st1" x1="-169" y1="60.9" x2="-137.7" y2="115.2"></line>
					<line id="Line_79-2" class="st1" x1="-127.2" y1="115.2" x2="-158.5" y2="60.9"></line>
					<line id="Line_80-2" class="st1" x1="-148.1" y1="60.9" x2="-116.8" y2="115.2"></line>
					<line id="Line_81-2" class="st1" x1="-106.4" y1="115.2" x2="-137.7" y2="60.9"></line>
					<line id="Line_82-2" class="st1" x1="-96" y1="115.2" x2="-127.2" y2="60.9"></line>
					<line id="Line_83-2" class="st1" x1="-189.8" y1="60.9" x2="-127.2" y2="60.9"></line>
					<line id="Line_84-2" class="st1" x1="-122" y1="51.9" x2="-184.6" y2="51.9"></line>
					<line id="Line_85-2" class="st1" x1="-116.8" y1="42.8" x2="-179.4" y2="42.8"></line>
					<line id="Line_86-2" class="st1" x1="-106.4" y1="24.7" x2="-169" y2="24.7"></line>
					<line id="Line_87-2" class="st1" x1="-174.2" y1="33.8" x2="-111.6" y2="33.8"></line>
					<line id="Line_88-2" class="st1" x1="-163.7" y1="15.7" x2="-101.2" y2="15.7"></line>
					<line id="Line_89-2" class="st1" x1="-69.9" y1="51.9" x2="-101.2" y2="106.1"></line>
					<line id="Line_90-2" class="st1" x1="-106.4" y1="97.1" x2="-75.1" y2="42.8"></line>
					<line id="Line_91-2" class="st1" x1="-80.3" y1="33.8" x2="-111.6" y2="88"></line>
					<line id="Line_92-2" class="st1" x1="-116.8" y1="79" x2="-85.5" y2="24.7"></line>
					<line id="Line_93-2" class="st1" x1="-90.7" y1="15.7" x2="-122" y2="70"></line>
					<path id="Path_1906-2" class="st1" d="M-158.6,6.6h62.7l31.3,54.3l-31.3,54.3h-62.7l-31.3-54.3L-158.6,6.6z"></path>
				</g>
			</g>
			<g id="Group_1908" transform="translate(94.312 162.853)">
				<g id="Group_1860-2">
					<line id="Line_76-3" class="st1" x1="281.3" y1="6.6" x2="250" y2="60.9"></line>
					<line id="Line_77-3" class="st1" x1="229.2" y1="115.2" x2="197.9" y2="60.9"></line>
					<line id="Line_78-3" class="st1" x1="208.3" y1="60.9" x2="239.6" y2="115.2"></line>
					<line id="Line_79-3" class="st1" x1="250" y1="115.2" x2="218.7" y2="60.9"></line>
					<line id="Line_80-3" class="st1" x1="229.2" y1="60.9" x2="260.4" y2="115.2"></line>
					<line id="Line_81-3" class="st1" x1="270.9" y1="115.2" x2="239.6" y2="60.9"></line>
					<line id="Line_82-3" class="st1" x1="281.3" y1="115.2" x2="250" y2="60.9"></line>
					<line id="Line_83-3" class="st1" x1="187.4" y1="60.9" x2="250" y2="60.9"></line>
					<line id="Line_84-3" class="st1" x1="255.2" y1="51.9" x2="192.7" y2="51.9"></line>
					<line id="Line_85-3" class="st1" x1="260.4" y1="42.8" x2="197.9" y2="42.8"></line>
					<line id="Line_86-3" class="st1" x1="270.9" y1="24.7" x2="208.3" y2="24.7"></line>
					<line id="Line_87-3" class="st1" x1="203.1" y1="33.8" x2="265.7" y2="33.8"></line>
					<line id="Line_88-3" class="st1" x1="213.5" y1="15.7" x2="276.1" y2="15.7"></line>
					<line id="Line_89-3" class="st1" x1="307.4" y1="51.9" x2="276.1" y2="106.1"></line>
					<line id="Line_90-3" class="st1" x1="270.9" y1="97.1" x2="302.1" y2="42.8"></line>
					<line id="Line_91-3" class="st1" x1="296.9" y1="33.8" x2="265.6" y2="88"></line>
					<line id="Line_92-3" class="st1" x1="260.4" y1="79" x2="291.7" y2="24.7"></line>
					<line id="Line_93-3" class="st1" x1="286.5" y1="15.7" x2="255.2" y2="70"></line>
					<path id="Path_1906-3" class="st1" d="M218.7,6.6h62.7l31.3,54.3l-31.3,54.3h-62.7l-31.3-54.3L218.7,6.6z"></path>
				</g>
				<g id="Group_1861-2" transform="translate(94.312 54.284)">
					<line id="Line_76-4" class="st1" x1="92.7" y1="6.6" x2="61.4" y2="60.9"></line>
					<line id="Line_77-4" class="st1" x1="40.5" y1="115.2" x2="9.2" y2="60.9"></line>
					<line id="Line_78-4" class="st1" x1="19.7" y1="60.9" x2="51" y2="115.2"></line>
					<line id="Line_79-4" class="st1" x1="61.4" y1="115.2" x2="30.1" y2="60.9"></line>
					<line id="Line_80-4" class="st1" x1="40.5" y1="60.9" x2="71.8" y2="115.2"></line>
					<line id="Line_81-4" class="st1" x1="82.2" y1="115.2" x2="51" y2="60.9"></line>
					<line id="Line_82-4" class="st1" x1="92.7" y1="115.2" x2="61.4" y2="60.9"></line>
					<line id="Line_83-4" class="st1" x1="-1.2" y1="60.9" x2="61.4" y2="60.9"></line>
					<line id="Line_84-4" class="st1" x1="66.6" y1="51.9" x2="4" y2="51.9"></line>
					<line id="Line_85-4" class="st1" x1="71.8" y1="42.8" x2="9.2" y2="42.8"></line>
					<line id="Line_86-4" class="st1" x1="82.2" y1="24.7" x2="19.7" y2="24.7"></line>
					<line id="Line_87-4" class="st1" x1="14.5" y1="33.8" x2="77" y2="33.8"></line>
					<line id="Line_88-4" class="st1" x1="24.9" y1="15.7" x2="87.5" y2="15.7"></line>
					<line id="Line_89-4" class="st1" x1="118.7" y1="51.9" x2="87.5" y2="106.1"></line>
					<line id="Line_90-4" class="st1" x1="82.2" y1="97.1" x2="113.5" y2="42.8"></line>
					<line id="Line_91-4" class="st1" x1="108.3" y1="33.8" x2="77" y2="88"></line>
					<line id="Line_92-4" class="st1" x1="71.8" y1="79" x2="103.1" y2="24.7"></line>
					<line id="Line_93-4" class="st1" x1="97.9" y1="15.7" x2="66.6" y2="70"></line>
					<path id="Path_1906-4" class="st1" d="M30,6.6h62.7L124,60.9l-31.3,54.3H30L-1.3,60.9L30,6.6z"></path>
				</g>
			</g>
			<g id="Group_1909" transform="translate(0 216.81)">
				<g id="Group_1860-3">
					<line id="Line_76-5" class="st1" x1="469.9" y1="6.6" x2="438.6" y2="60.9"></line>
					<line id="Line_77-5" class="st1" x1="417.8" y1="115.2" x2="386.5" y2="60.9"></line>
					<line id="Line_78-5" class="st1" x1="396.9" y1="60.9" x2="428.2" y2="115.2"></line>
					<line id="Line_79-5" class="st1" x1="438.6" y1="115.2" x2="407.3" y2="60.9"></line>
					<line id="Line_80-5" class="st1" x1="417.8" y1="60.9" x2="449.1" y2="115.2"></line>
					<line id="Line_81-5" class="st1" x1="459.5" y1="115.2" x2="428.2" y2="60.9"></line>
					<line id="Line_82-5" class="st1" x1="469.9" y1="115.2" x2="438.6" y2="60.9"></line>
					<line id="Line_83-5" class="st1" x1="376.1" y1="60.9" x2="438.6" y2="60.9"></line>
					<line id="Line_84-5" class="st1" x1="443.8" y1="51.9" x2="381.3" y2="51.9"></line>
					<line id="Line_85-5" class="st1" x1="449.1" y1="42.8" x2="386.5" y2="42.8"></line>
					<line id="Line_86-5" class="st1" x1="459.5" y1="24.7" x2="396.9" y2="24.7"></line>
					<line id="Line_87-5" class="st1" x1="391.7" y1="33.8" x2="454.3" y2="33.8"></line>
					<line id="Line_88-5" class="st1" x1="402.1" y1="15.7" x2="464.7" y2="15.7"></line>
					<line id="Line_89-5" class="st1" x1="496" y1="51.9" x2="464.7" y2="106.1"></line>
					<line id="Line_90-5" class="st1" x1="459.5" y1="97.1" x2="490.8" y2="42.8"></line>
					<line id="Line_91-5" class="st1" x1="485.6" y1="33.8" x2="454.3" y2="88"></line>
					<line id="Line_92-5" class="st1" x1="449.1" y1="79" x2="480.3" y2="24.7"></line>
					<line id="Line_93-5" class="st1" x1="475.1" y1="15.7" x2="443.8" y2="70"></line>
					<path id="Path_1906-5" class="st1" d="M407.3,6.6H470l31.3,54.3L470,115.2h-62.7L376,60.9L407.3,6.6z"></path>
				</g>
				<g id="Group_1861-3" transform="translate(94.312 54.284)">
					<line id="Line_76-6" class="st1" x1="281.3" y1="6.6" x2="250" y2="60.9"></line>
					<line id="Line_77-6" class="st1" x1="229.2" y1="115.2" x2="197.9" y2="60.9"></line>
					<line id="Line_78-6" class="st1" x1="208.3" y1="60.9" x2="239.6" y2="115.2"></line>
					<line id="Line_79-6" class="st1" x1="250" y1="115.2" x2="218.7" y2="60.9"></line>
					<line id="Line_80-6" class="st1" x1="229.2" y1="60.9" x2="260.4" y2="115.2"></line>
					<line id="Line_81-6" class="st1" x1="270.9" y1="115.2" x2="239.6" y2="60.9"></line>
					<line id="Line_82-6" class="st1" x1="281.3" y1="115.2" x2="250" y2="60.9"></line>
					<line id="Line_83-6" class="st1" x1="187.4" y1="60.9" x2="250" y2="60.9"></line>
					<line id="Line_84-6" class="st1" x1="255.2" y1="51.9" x2="192.7" y2="51.9"></line>
					<line id="Line_85-6" class="st1" x1="260.4" y1="42.8" x2="197.9" y2="42.8"></line>
					<line id="Line_86-6" class="st1" x1="270.9" y1="24.7" x2="208.3" y2="24.7"></line>
					<line id="Line_87-6" class="st1" x1="203.1" y1="33.8" x2="265.7" y2="33.8"></line>
					<line id="Line_88-6" class="st1" x1="213.5" y1="15.7" x2="276.1" y2="15.7"></line>
					<line id="Line_89-6" class="st1" x1="307.4" y1="51.9" x2="276.1" y2="106.1"></line>
					<line id="Line_90-6" class="st1" x1="270.9" y1="97.1" x2="302.1" y2="42.8"></line>
					<line id="Line_91-6" class="st1" x1="296.9" y1="33.8" x2="265.6" y2="88"></line>
					<line id="Line_92-6" class="st1" x1="260.4" y1="79" x2="291.7" y2="24.7"></line>
					<line id="Line_93-6" class="st1" x1="286.5" y1="15.7" x2="255.2" y2="70"></line>
					<path id="Path_1906-6" class="st1" d="M218.7,6.6h62.7l31.3,54.3l-31.3,54.3h-62.7l-31.3-54.3L218.7,6.6z"></path>
				</g>
			</g>
			<g id="Group_1907" transform="translate(94.312 53.957)">
				<g id="Group_1860-4" transform="translate(0 0)">
					<line id="Line_76-7" class="st1" x1="281.3" y1="6.6" x2="250" y2="60.9"></line>
					<line id="Line_77-7" class="st1" x1="229.2" y1="115.2" x2="197.9" y2="60.9"></line>
					<line id="Line_78-7" class="st1" x1="208.3" y1="60.9" x2="239.6" y2="115.2"></line>
					<line id="Line_79-7" class="st1" x1="250" y1="115.2" x2="218.7" y2="60.9"></line>
					<line id="Line_80-7" class="st1" x1="229.2" y1="60.9" x2="260.4" y2="115.2"></line>
					<line id="Line_81-7" class="st1" x1="270.9" y1="115.2" x2="239.6" y2="60.9"></line>
					<line id="Line_82-7" class="st1" x1="281.3" y1="115.2" x2="250" y2="60.9"></line>
					<line id="Line_83-7" class="st1" x1="187.4" y1="60.9" x2="250" y2="60.9"></line>
					<line id="Line_84-7" class="st1" x1="255.2" y1="51.9" x2="192.7" y2="51.9"></line>
					<line id="Line_85-7" class="st1" x1="260.4" y1="42.8" x2="197.9" y2="42.8"></line>
					<line id="Line_86-7" class="st1" x1="270.9" y1="24.7" x2="208.3" y2="24.7"></line>
					<line id="Line_87-7" class="st1" x1="203.1" y1="33.8" x2="265.7" y2="33.8"></line>
					<line id="Line_88-7" class="st1" x1="213.5" y1="15.7" x2="276.1" y2="15.7"></line>
					<line id="Line_89-7" class="st1" x1="307.4" y1="51.9" x2="276.1" y2="106.1"></line>
					<line id="Line_90-7" class="st1" x1="270.9" y1="97.1" x2="302.1" y2="42.8"></line>
					<line id="Line_91-7" class="st1" x1="296.9" y1="33.8" x2="265.6" y2="88"></line>
					<line id="Line_92-7" class="st1" x1="260.4" y1="79" x2="291.7" y2="24.7"></line>
					<line id="Line_93-7" class="st1" x1="286.5" y1="15.7" x2="255.2" y2="70"></line>
					<path id="Path_1906-7" class="st1" d="M218.7,6.6h62.7l31.3,54.3l-31.3,54.3h-62.7l-31.3-54.3L218.7,6.6z"></path>
				</g>
				<g id="Group_1861-4" transform="translate(94.312 54.284)">
					<line id="Line_76-8" class="st1" x1="92.7" y1="6.6" x2="61.4" y2="60.9"></line>
					<line id="Line_77-8" class="st1" x1="40.5" y1="115.2" x2="9.2" y2="60.9"></line>
					<line id="Line_78-8" class="st1" x1="19.7" y1="60.9" x2="51" y2="115.2"></line>
					<line id="Line_79-8" class="st1" x1="61.4" y1="115.2" x2="30.1" y2="60.9"></line>
					<line id="Line_80-8" class="st1" x1="40.5" y1="60.9" x2="71.8" y2="115.2"></line>
					<line id="Line_81-8" class="st1" x1="82.2" y1="115.2" x2="51" y2="60.9"></line>
					<line id="Line_82-8" class="st1" x1="92.7" y1="115.2" x2="61.4" y2="60.9"></line>
					<line id="Line_83-8" class="st1" x1="-1.2" y1="60.9" x2="61.4" y2="60.9"></line>
					<line id="Line_84-8" class="st1" x1="66.6" y1="51.9" x2="4" y2="51.9"></line>
					<line id="Line_85-8" class="st1" x1="71.8" y1="42.8" x2="9.2" y2="42.8"></line>
					<line id="Line_86-8" class="st1" x1="82.2" y1="24.7" x2="19.7" y2="24.7"></line>
					<line id="Line_87-8" class="st1" x1="14.5" y1="33.8" x2="77" y2="33.8"></line>
					<line id="Line_88-8" class="st1" x1="24.9" y1="15.7" x2="87.5" y2="15.7"></line>
					<line id="Line_89-8" class="st1" x1="118.7" y1="51.9" x2="87.5" y2="106.1"></line>
					<line id="Line_90-8" class="st1" x1="82.2" y1="97.1" x2="113.5" y2="42.8"></line>
					<line id="Line_91-8" class="st1" x1="108.3" y1="33.8" x2="77" y2="88"></line>
					<line id="Line_92-8" class="st1" x1="71.8" y1="79" x2="103.1" y2="24.7"></line>
					<line id="Line_93-8" class="st1" x1="97.9" y1="15.7" x2="66.6" y2="70"></line>
					<path id="Path_1906-8" class="st1" d="M30,6.6h62.7L124,60.9l-31.3,54.3H30L-1.3,60.9L30,6.6z"></path>
				</g>
			</g>
		</g>
	</g>
	<g id="Group_4166" transform="translate(0 -14)">
		<g id="Group_4161" transform="translate(8.468 -912.51)">
			<g id="Group_4156-2" transform="translate(-1560.233 2348.961)">
				<g transform="matrix(1, 0, 0, 1, 1378, -169.8)">
					<path id="Path_3737-4_00000016794068530582580360000007302547827538655165_" class="st0" d="M473.1,548.8l31.1,54l-31.1,54       h-62.2l-31.1-54l31.1-54H473.1z"></path>
				</g>
				<g transform="matrix(1, 0, 0, 1, 1378, -169.8)">
					<path id="Path_3739-2_00000122689455312575994420000006725169102884873862_" class="st0" d="M348.6,876l31.1,54l-31.1,54h-62.2       l-31.1-54l31.1-54H348.6z"></path>
				</g>
				<g id="Group_4152-2" transform="translate(1475.83 209.518)">
					<g transform="matrix(1, 0, 0, 1, -97.83, -379.32)">
						<path id="Path_3742-4_00000088130929943188423880000002495934857199160727_" class="st0" d="M286.4,440l31.1,54l-31.1,54        h-62.2L193,494l31.1-54H286.4z"></path>
					</g>
					<g transform="matrix(1, 0, 0, 1, -97.83, -379.32)">
						<path id="Path_3740-4_00000070105913578818062920000008533354744384555428_" class="st0" d="M378.3,385.9l31.1,54l-31.1,54        H316l-31.1-54l31.1-54H378.3z"></path>
					</g>
				</g>
				<g transform="matrix(1, 0, 0, 1, 1378, -169.8)">
					<path id="Path_3741-4_00000084499858107730783820000011491421544391346089_" class="st0" d="M286.4,659.4l31.1,54l-31.1,54       h-62.2l-31.1-54l31.1-54H286.4z"></path>
				</g>
			</g>
			<g id="Group_3904-2" transform="translate(-178.768 2505.51)">
				<g id="Group_1906-2" transform="translate(188.624)">
					<g id="Group_1860-5">
						<line id="Line_76-9" class="st1" x1="92.7" y1="6.6" x2="61.4" y2="60.9"></line>
						<line id="Line_77-9" class="st1" x1="40.5" y1="115.2" x2="9.2" y2="60.9"></line>
						<line id="Line_78-9" class="st1" x1="19.7" y1="60.9" x2="50.9" y2="115.2"></line>
						<line id="Line_79-9" class="st1" x1="61.4" y1="115.2" x2="30.1" y2="60.9"></line>
						<line id="Line_80-9" class="st1" x1="40.5" y1="60.9" x2="71.8" y2="115.2"></line>
						<line id="Line_81-9" class="st1" x1="82.2" y1="115.2" x2="51" y2="60.9"></line>
						<line id="Line_82-9" class="st1" x1="92.7" y1="115.2" x2="61.4" y2="60.9"></line>
						<line id="Line_83-9" class="st1" x1="-1.2" y1="60.9" x2="61.4" y2="60.9"></line>
						<line id="Line_84-9" class="st1" x1="66.6" y1="51.9" x2="4" y2="51.9"></line>
						<line id="Line_85-9" class="st1" x1="71.8" y1="42.8" x2="9.2" y2="42.8"></line>
						<line id="Line_86-9" class="st1" x1="82.2" y1="24.7" x2="19.7" y2="24.7"></line>
						<line id="Line_87-9" class="st1" x1="14.5" y1="33.8" x2="77" y2="33.8"></line>
						<line id="Line_88-9" class="st1" x1="24.9" y1="15.7" x2="87.5" y2="15.7"></line>
						<line id="Line_89-9" class="st1" x1="118.7" y1="51.9" x2="87.4" y2="106.1"></line>
						<line id="Line_90-9" class="st1" x1="82.2" y1="97.1" x2="113.5" y2="42.8"></line>
						<line id="Line_91-9" class="st1" x1="108.3" y1="33.8" x2="77" y2="88"></line>
						<line id="Line_92-9" class="st1" x1="71.8" y1="79" x2="103.1" y2="24.7"></line>
						<line id="Line_93-9" class="st1" x1="97.9" y1="15.7" x2="66.6" y2="70"></line>
						<path id="Path_1906-9" class="st1" d="M30,6.6h62.7L124,60.9l-31.3,54.3H30L-1.3,60.9L30,6.6z"></path>
					</g>
					<g id="Group_1861-5" transform="translate(94.312 54.284)">
						<line id="Line_76-10" class="st1" x1="-96" y1="6.6" x2="-127.2" y2="60.9"></line>
						<line id="Line_77-10" class="st1" x1="-148.1" y1="115.2" x2="-179.4" y2="60.9"></line>
						<line id="Line_78-10" class="st1" x1="-169" y1="60.9" x2="-137.7" y2="115.2"></line>
						<line id="Line_79-10" class="st1" x1="-127.2" y1="115.2" x2="-158.5" y2="60.9"></line>
						<line id="Line_80-10" class="st1" x1="-148.1" y1="60.9" x2="-116.8" y2="115.2"></line>
						<line id="Line_81-10" class="st1" x1="-106.4" y1="115.2" x2="-137.7" y2="60.9"></line>
						<line id="Line_82-10" class="st1" x1="-96" y1="115.2" x2="-127.2" y2="60.9"></line>
						<line id="Line_83-10" class="st1" x1="-189.8" y1="60.9" x2="-127.2" y2="60.9"></line>
						<line id="Line_84-10" class="st1" x1="-122" y1="51.9" x2="-184.6" y2="51.9"></line>
						<line id="Line_85-10" class="st1" x1="-116.8" y1="42.8" x2="-179.4" y2="42.8"></line>
						<line id="Line_86-10" class="st1" x1="-106.4" y1="24.7" x2="-169" y2="24.7"></line>
						<line id="Line_87-10" class="st1" x1="-174.2" y1="33.8" x2="-111.6" y2="33.8"></line>
						<line id="Line_88-10" class="st1" x1="-163.7" y1="15.7" x2="-101.2" y2="15.7"></line>
						<line id="Line_89-10" class="st1" x1="-69.9" y1="51.9" x2="-101.2" y2="106.1"></line>
						<line id="Line_90-10" class="st1" x1="-106.4" y1="97.1" x2="-75.1" y2="42.8"></line>
						<line id="Line_91-10" class="st1" x1="-80.3" y1="33.8" x2="-111.6" y2="88"></line>
						<line id="Line_92-10" class="st1" x1="-116.8" y1="79" x2="-85.5" y2="24.7"></line>
						<line id="Line_93-10" class="st1" x1="-90.7" y1="15.7" x2="-122" y2="70"></line>
						<path id="Path_1906-10" class="st1" d="M-158.6,6.6h62.7l31.3,54.3l-31.3,54.3h-62.7l-31.3-54.3L-158.6,6.6z"></path>
					</g>
				</g>
				<g id="Group_1908-2" transform="translate(94.312 162.853)">
					<g id="Group_1860-6">
						<line id="Line_76-11" class="st1" x1="281.3" y1="6.6" x2="250" y2="60.9"></line>
						<line id="Line_77-11" class="st1" x1="229.1" y1="115.2" x2="197.9" y2="60.9"></line>
						<line id="Line_78-11" class="st1" x1="208.3" y1="60.9" x2="239.6" y2="115.2"></line>
						<line id="Line_79-11" class="st1" x1="250" y1="115.2" x2="218.7" y2="60.9"></line>
						<line id="Line_80-11" class="st1" x1="229.1" y1="60.9" x2="260.4" y2="115.2"></line>
						<line id="Line_81-11" class="st1" x1="270.9" y1="115.2" x2="239.6" y2="60.9"></line>
						<line id="Line_82-11" class="st1" x1="281.3" y1="115.2" x2="250" y2="60.9"></line>
						<line id="Line_83-11" class="st1" x1="187.4" y1="60.9" x2="250" y2="60.9"></line>
						<line id="Line_84-11" class="st1" x1="255.2" y1="51.9" x2="192.6" y2="51.9"></line>
						<line id="Line_85-11" class="st1" x1="260.4" y1="42.8" x2="197.9" y2="42.8"></line>
						<line id="Line_86-11" class="st1" x1="270.9" y1="24.7" x2="208.3" y2="24.7"></line>
						<line id="Line_87-11" class="st1" x1="203.1" y1="33.8" x2="265.6" y2="33.8"></line>
						<line id="Line_88-11" class="st1" x1="213.5" y1="15.7" x2="276.1" y2="15.7"></line>
						<line id="Line_89-11" class="st1" x1="307.4" y1="51.9" x2="276.1" y2="106.1"></line>
						<line id="Line_90-11" class="st1" x1="270.9" y1="97.1" x2="302.1" y2="42.8"></line>
						<line id="Line_91-11" class="st1" x1="296.9" y1="33.8" x2="265.6" y2="88"></line>
						<line id="Line_92-11" class="st1" x1="260.4" y1="79" x2="291.7" y2="24.7"></line>
						<line id="Line_93-11" class="st1" x1="286.5" y1="15.7" x2="255.2" y2="70"></line>
						<path id="Path_1906-11" class="st1" d="M218.7,6.6h62.7l31.3,54.3l-31.3,54.3h-62.7l-31.3-54.3L218.7,6.6z"></path>
					</g>
					<g id="Group_1861-6" transform="translate(94.312 54.284)">
						<line id="Line_76-12" class="st1" x1="92.7" y1="6.6" x2="61.4" y2="60.9"></line>
						<line id="Line_77-12" class="st1" x1="40.5" y1="115.2" x2="9.2" y2="60.9"></line>
						<line id="Line_78-12" class="st1" x1="19.7" y1="60.9" x2="50.9" y2="115.2"></line>
						<line id="Line_79-12" class="st1" x1="61.4" y1="115.2" x2="30.1" y2="60.9"></line>
						<line id="Line_80-12" class="st1" x1="40.5" y1="60.9" x2="71.8" y2="115.2"></line>
						<line id="Line_81-12" class="st1" x1="82.2" y1="115.2" x2="51" y2="60.9"></line>
						<line id="Line_82-12" class="st1" x1="92.7" y1="115.2" x2="61.4" y2="60.9"></line>
						<line id="Line_83-12" class="st1" x1="-1.2" y1="60.9" x2="61.4" y2="60.9"></line>
						<line id="Line_84-12" class="st1" x1="66.6" y1="51.9" x2="4" y2="51.9"></line>
						<line id="Line_85-12" class="st1" x1="71.8" y1="42.8" x2="9.2" y2="42.8"></line>
						<line id="Line_86-12" class="st1" x1="82.2" y1="24.7" x2="19.7" y2="24.7"></line>
						<line id="Line_87-12" class="st1" x1="14.5" y1="33.8" x2="77" y2="33.8"></line>
						<line id="Line_88-12" class="st1" x1="24.9" y1="15.7" x2="87.5" y2="15.7"></line>
						<line id="Line_89-12" class="st1" x1="118.7" y1="51.9" x2="87.4" y2="106.1"></line>
						<line id="Line_90-12" class="st1" x1="82.2" y1="97.1" x2="113.5" y2="42.8"></line>
						<line id="Line_91-12" class="st1" x1="108.3" y1="33.8" x2="77" y2="88"></line>
						<line id="Line_92-12" class="st1" x1="71.8" y1="79" x2="103.1" y2="24.7"></line>
						<line id="Line_93-12" class="st1" x1="97.9" y1="15.7" x2="66.6" y2="70"></line>
						<path id="Path_1906-12" class="st1" d="M30,6.6h62.7L124,60.9l-31.3,54.3H30L-1.3,60.9L30,6.6z"></path>
					</g>
				</g>
				<g id="Group_1909-2" transform="translate(0 216.81)">
					<g id="Group_1860-7">
						<line id="Line_76-13" class="st1" x1="469.9" y1="6.6" x2="438.6" y2="60.9"></line>
						<line id="Line_77-13" class="st1" x1="417.8" y1="115.2" x2="386.5" y2="60.9"></line>
						<line id="Line_78-13" class="st1" x1="396.9" y1="60.9" x2="428.2" y2="115.2"></line>
						<line id="Line_79-13" class="st1" x1="438.6" y1="115.2" x2="407.3" y2="60.9"></line>
						<line id="Line_80-13" class="st1" x1="417.8" y1="60.9" x2="449.1" y2="115.2"></line>
						<line id="Line_81-13" class="st1" x1="459.5" y1="115.2" x2="428.2" y2="60.9"></line>
						<line id="Line_82-13" class="st1" x1="469.9" y1="115.2" x2="438.6" y2="60.9"></line>
						<line id="Line_83-13" class="st1" x1="376.1" y1="60.9" x2="438.6" y2="60.9"></line>
						<line id="Line_84-13" class="st1" x1="443.8" y1="51.9" x2="381.3" y2="51.9"></line>
						<line id="Line_85-13" class="st1" x1="449.1" y1="42.8" x2="386.5" y2="42.8"></line>
						<line id="Line_86-13" class="st1" x1="459.5" y1="24.7" x2="396.9" y2="24.7"></line>
						<line id="Line_87-13" class="st1" x1="391.7" y1="33.8" x2="454.3" y2="33.8"></line>
						<line id="Line_88-13" class="st1" x1="402.1" y1="15.7" x2="464.7" y2="15.7"></line>
						<line id="Line_89-13" class="st1" x1="496" y1="51.9" x2="464.7" y2="106.1"></line>
						<line id="Line_90-13" class="st1" x1="459.5" y1="97.1" x2="490.8" y2="42.8"></line>
						<line id="Line_91-13" class="st1" x1="485.6" y1="33.8" x2="454.3" y2="88"></line>
						<line id="Line_92-13" class="st1" x1="449.1" y1="79" x2="480.3" y2="24.7"></line>
						<line id="Line_93-13" class="st1" x1="475.1" y1="15.7" x2="443.8" y2="70"></line>
						<path id="Path_1906-13" class="st1" d="M407.3,6.6H470l31.3,54.3L470,115.2h-62.7L376,60.9L407.3,6.6z"></path>
					</g>
					<g id="Group_1861-7" transform="translate(94.312 54.284)">
						<line id="Line_76-14" class="st1" x1="281.3" y1="6.6" x2="250" y2="60.9"></line>
						<line id="Line_77-14" class="st1" x1="229.1" y1="115.2" x2="197.9" y2="60.9"></line>
						<line id="Line_78-14" class="st1" x1="208.3" y1="60.9" x2="239.6" y2="115.2"></line>
						<line id="Line_79-14" class="st1" x1="250" y1="115.2" x2="218.7" y2="60.9"></line>
						<line id="Line_80-14" class="st1" x1="229.1" y1="60.9" x2="260.4" y2="115.2"></line>
						<line id="Line_81-14" class="st1" x1="270.9" y1="115.2" x2="239.6" y2="60.9"></line>
						<line id="Line_82-14" class="st1" x1="281.3" y1="115.2" x2="250" y2="60.9"></line>
						<line id="Line_83-14" class="st1" x1="187.4" y1="60.9" x2="250" y2="60.9"></line>
						<line id="Line_84-14" class="st1" x1="255.2" y1="51.9" x2="192.6" y2="51.9"></line>
						<line id="Line_85-14" class="st1" x1="260.4" y1="42.8" x2="197.9" y2="42.8"></line>
						<line id="Line_86-14" class="st1" x1="270.9" y1="24.7" x2="208.3" y2="24.7"></line>
						<line id="Line_87-14" class="st1" x1="203.1" y1="33.8" x2="265.6" y2="33.8"></line>
						<line id="Line_88-14" class="st1" x1="213.5" y1="15.7" x2="276.1" y2="15.7"></line>
						<line id="Line_89-14" class="st1" x1="307.4" y1="51.9" x2="276.1" y2="106.1"></line>
						<line id="Line_90-14" class="st1" x1="270.9" y1="97.1" x2="302.1" y2="42.8"></line>
						<line id="Line_91-14" class="st1" x1="296.9" y1="33.8" x2="265.6" y2="88"></line>
						<line id="Line_92-14" class="st1" x1="260.4" y1="79" x2="291.7" y2="24.7"></line>
						<line id="Line_93-14" class="st1" x1="286.5" y1="15.7" x2="255.2" y2="70"></line>
						<path id="Path_1906-14" class="st1" d="M218.7,6.6h62.7l31.3,54.3l-31.3,54.3h-62.7l-31.3-54.3L218.7,6.6z"></path>
					</g>
				</g>
				<g id="Group_1907-2" transform="translate(94.312 53.957)">
					<g id="Group_1860-8" transform="translate(0 0)">
						<line id="Line_76-15" class="st1" x1="281.3" y1="6.6" x2="250" y2="60.9"></line>
						<line id="Line_77-15" class="st1" x1="229.1" y1="115.2" x2="197.9" y2="60.9"></line>
						<line id="Line_78-15" class="st1" x1="208.3" y1="60.9" x2="239.6" y2="115.2"></line>
						<line id="Line_79-15" class="st1" x1="250" y1="115.2" x2="218.7" y2="60.9"></line>
						<line id="Line_80-15" class="st1" x1="229.1" y1="60.9" x2="260.4" y2="115.2"></line>
						<line id="Line_81-15" class="st1" x1="270.9" y1="115.2" x2="239.6" y2="60.9"></line>
						<line id="Line_82-15" class="st1" x1="281.3" y1="115.2" x2="250" y2="60.9"></line>
						<line id="Line_83-15" class="st1" x1="187.4" y1="60.9" x2="250" y2="60.9"></line>
						<line id="Line_84-15" class="st1" x1="255.2" y1="51.9" x2="192.6" y2="51.9"></line>
						<line id="Line_85-15" class="st1" x1="260.4" y1="42.8" x2="197.9" y2="42.8"></line>
						<line id="Line_86-15" class="st1" x1="270.9" y1="24.7" x2="208.3" y2="24.7"></line>
						<line id="Line_87-15" class="st1" x1="203.1" y1="33.8" x2="265.6" y2="33.8"></line>
						<line id="Line_88-15" class="st1" x1="213.5" y1="15.7" x2="276.1" y2="15.7"></line>
						<line id="Line_89-15" class="st1" x1="307.4" y1="51.9" x2="276.1" y2="106.1"></line>
						<line id="Line_90-15" class="st1" x1="270.9" y1="97.1" x2="302.1" y2="42.8"></line>
						<line id="Line_91-15" class="st1" x1="296.9" y1="33.8" x2="265.6" y2="88"></line>
						<line id="Line_92-15" class="st1" x1="260.4" y1="79" x2="291.7" y2="24.7"></line>
						<line id="Line_93-15" class="st1" x1="286.5" y1="15.7" x2="255.2" y2="70"></line>
						<path id="Path_1906-15" class="st1" d="M218.7,6.6h62.7l31.3,54.3l-31.3,54.3h-62.7l-31.3-54.3L218.7,6.6z"></path>
					</g>
					<g id="Group_1861-8" transform="translate(94.312 54.284)">
						<line id="Line_76-16" class="st1" x1="92.7" y1="6.6" x2="61.4" y2="60.9"></line>
						<line id="Line_77-16" class="st1" x1="40.5" y1="115.2" x2="9.2" y2="60.9"></line>
						<line id="Line_78-16" class="st1" x1="19.7" y1="60.9" x2="50.9" y2="115.2"></line>
						<line id="Line_79-16" class="st1" x1="61.4" y1="115.2" x2="30.1" y2="60.9"></line>
						<line id="Line_80-16" class="st1" x1="40.5" y1="60.9" x2="71.8" y2="115.2"></line>
						<line id="Line_81-16" class="st1" x1="82.2" y1="115.2" x2="51" y2="60.9"></line>
						<line id="Line_82-16" class="st1" x1="92.7" y1="115.2" x2="61.4" y2="60.9"></line>
						<line id="Line_83-16" class="st1" x1="-1.2" y1="60.9" x2="61.4" y2="60.9"></line>
						<line id="Line_84-16" class="st1" x1="66.6" y1="51.9" x2="4" y2="51.9"></line>
						<line id="Line_85-16" class="st1" x1="71.8" y1="42.8" x2="9.2" y2="42.8"></line>
						<line id="Line_86-16" class="st1" x1="82.2" y1="24.7" x2="19.7" y2="24.7"></line>
						<line id="Line_87-16" class="st1" x1="14.5" y1="33.8" x2="77" y2="33.8"></line>
						<line id="Line_88-16" class="st1" x1="24.9" y1="15.7" x2="87.5" y2="15.7"></line>
						<line id="Line_89-16" class="st1" x1="118.7" y1="51.9" x2="87.4" y2="106.1"></line>
						<line id="Line_90-16" class="st1" x1="82.2" y1="97.1" x2="113.5" y2="42.8"></line>
						<line id="Line_91-16" class="st1" x1="108.3" y1="33.8" x2="77" y2="88"></line>
						<line id="Line_92-16" class="st1" x1="71.8" y1="79" x2="103.1" y2="24.7"></line>
						<line id="Line_93-16" class="st1" x1="97.9" y1="15.7" x2="66.6" y2="70"></line>
						<path id="Path_1906-16" class="st1" d="M30,6.6h62.7L124,60.9l-31.3,54.3H30L-1.3,60.9L30,6.6z"></path>
					</g>
				</g>
			</g>
			<g id="Group_3903" transform="translate(-84.457 2776.916)">
				<g id="Group_1906-3" transform="translate(188.624 0)">
					<g id="Group_1860-9">
						<line id="Line_76-17" class="st1" x1="-96" y1="6.6" x2="-127.2" y2="60.9"></line>
						<line id="Line_77-17" class="st1" x1="-148.1" y1="115.2" x2="-179.4" y2="60.9"></line>
						<line id="Line_78-17" class="st1" x1="-169" y1="60.9" x2="-137.7" y2="115.2"></line>
						<line id="Line_79-17" class="st1" x1="-127.2" y1="115.2" x2="-158.5" y2="60.9"></line>
						<line id="Line_80-17" class="st1" x1="-148.1" y1="60.9" x2="-116.8" y2="115.2"></line>
						<line id="Line_81-17" class="st1" x1="-106.4" y1="115.2" x2="-137.7" y2="60.9"></line>
						<line id="Line_82-17" class="st1" x1="-96" y1="115.2" x2="-127.2" y2="60.9"></line>
						<line id="Line_83-17" class="st1" x1="-189.8" y1="60.9" x2="-127.2" y2="60.9"></line>
						<line id="Line_84-17" class="st1" x1="-122" y1="51.9" x2="-184.6" y2="51.9"></line>
						<line id="Line_85-17" class="st1" x1="-116.8" y1="42.8" x2="-179.4" y2="42.8"></line>
						<line id="Line_86-17" class="st1" x1="-106.4" y1="24.7" x2="-169" y2="24.7"></line>
						<line id="Line_87-17" class="st1" x1="-174.2" y1="33.8" x2="-111.6" y2="33.8"></line>
						<line id="Line_88-17" class="st1" x1="-163.7" y1="15.7" x2="-101.2" y2="15.7"></line>
						<line id="Line_89-17" class="st1" x1="-69.9" y1="51.9" x2="-101.2" y2="106.1"></line>
						<line id="Line_90-17" class="st1" x1="-106.4" y1="97.1" x2="-75.1" y2="42.8"></line>
						<line id="Line_91-17" class="st1" x1="-80.3" y1="33.8" x2="-111.6" y2="88"></line>
						<line id="Line_92-17" class="st1" x1="-116.8" y1="79" x2="-85.5" y2="24.7"></line>
						<line id="Line_93-17" class="st1" x1="-90.7" y1="15.7" x2="-122" y2="70"></line>
						<path id="Path_1906-17" class="st1" d="M-158.6,6.6h62.7l31.3,54.3l-31.3,54.3h-62.7l-31.3-54.3L-158.6,6.6z"></path>
					</g>
					<g id="Group_1861-9" transform="translate(94.312 54.284)">
						<line id="Line_76-18" class="st1" x1="-284.6" y1="6.6" x2="-315.9" y2="60.9"></line>
						<line id="Line_77-18" class="st1" x1="-336.7" y1="115.2" x2="-368" y2="60.9"></line>
						<line id="Line_78-18" class="st1" x1="-357.6" y1="60.9" x2="-326.3" y2="115.2"></line>
						<line id="Line_79-18" class="st1" x1="-315.9" y1="115.2" x2="-347.2" y2="60.9"></line>
						<line id="Line_80-18" class="st1" x1="-336.7" y1="60.9" x2="-305.4" y2="115.2"></line>
						<line id="Line_81-18" class="st1" x1="-295" y1="115.2" x2="-326.3" y2="60.9"></line>
						<line id="Line_82-18" class="st1" x1="-284.6" y1="115.2" x2="-315.9" y2="60.9"></line>
						<line id="Line_83-18" class="st1" x1="-378.4" y1="60.9" x2="-315.9" y2="60.9"></line>
						<line id="Line_84-18" class="st1" x1="-310.7" y1="51.9" x2="-373.2" y2="51.9"></line>
						<line id="Line_85-18" class="st1" x1="-305.4" y1="42.8" x2="-368" y2="42.8"></line>
						<line id="Line_86-18" class="st1" x1="-295" y1="24.7" x2="-357.6" y2="24.7"></line>
						<line id="Line_87-18" class="st1" x1="-362.8" y1="33.8" x2="-300.2" y2="33.8"></line>
						<line id="Line_88-18" class="st1" x1="-352.4" y1="15.7" x2="-289.8" y2="15.7"></line>
						<line id="Line_89-18" class="st1" x1="-258.5" y1="51.9" x2="-289.8" y2="106.1"></line>
						<line id="Line_90-18" class="st1" x1="-295" y1="97.1" x2="-263.7" y2="42.8"></line>
						<line id="Line_91-18" class="st1" x1="-268.9" y1="33.8" x2="-300.2" y2="88"></line>
						<line id="Line_92-18" class="st1" x1="-305.4" y1="79" x2="-274.2" y2="24.7"></line>
						<line id="Line_93-18" class="st1" x1="-279.4" y1="15.7" x2="-310.7" y2="70"></line>
						<path id="Path_1906-18" class="st1" d="M-347.2,6.6h62.7l31.3,54.3l-31.3,54.3h-62.7l-31.3-54.3L-347.2,6.6z"></path>
					</g>
				</g>
				<g id="Group_1908-3" transform="translate(94.312 162.853)">
					<g id="Group_1860-10">
						<line id="Line_76-19" class="st1" x1="92.7" y1="6.6" x2="61.4" y2="60.9"></line>
						<line id="Line_77-19" class="st1" x1="40.5" y1="115.2" x2="9.2" y2="60.9"></line>
						<line id="Line_78-19" class="st1" x1="19.7" y1="60.9" x2="51" y2="115.2"></line>
						<line id="Line_79-19" class="st1" x1="61.4" y1="115.2" x2="30.1" y2="60.9"></line>
						<line id="Line_80-19" class="st1" x1="40.5" y1="60.9" x2="71.8" y2="115.2"></line>
						<line id="Line_81-19" class="st1" x1="82.2" y1="115.2" x2="51" y2="60.9"></line>
						<line id="Line_82-19" class="st1" x1="92.7" y1="115.2" x2="61.4" y2="60.9"></line>
						<line id="Line_83-19" class="st1" x1="-1.2" y1="60.9" x2="61.4" y2="60.9"></line>
						<line id="Line_84-19" class="st1" x1="66.6" y1="51.9" x2="4" y2="51.9"></line>
						<line id="Line_85-19" class="st1" x1="71.8" y1="42.8" x2="9.2" y2="42.8"></line>
						<line id="Line_86-19" class="st1" x1="82.2" y1="24.7" x2="19.7" y2="24.7"></line>
						<line id="Line_87-19" class="st1" x1="14.5" y1="33.8" x2="77" y2="33.8"></line>
						<line id="Line_88-19" class="st1" x1="24.9" y1="15.7" x2="87.5" y2="15.7"></line>
						<line id="Line_89-19" class="st1" x1="118.7" y1="51.9" x2="87.5" y2="106.1"></line>
						<line id="Line_90-19" class="st1" x1="82.2" y1="97.1" x2="113.5" y2="42.8"></line>
						<line id="Line_91-19" class="st1" x1="108.3" y1="33.8" x2="77" y2="88"></line>
						<line id="Line_92-19" class="st1" x1="71.8" y1="79" x2="103.1" y2="24.7"></line>
						<line id="Line_93-19" class="st1" x1="97.9" y1="15.7" x2="66.6" y2="70"></line>
						<path id="Path_1906-19" class="st1" d="M30,6.6h62.7L124,60.9l-31.3,54.3H30L-1.3,60.9L30,6.6z"></path>
					</g>
					<g id="Group_1861-10" transform="translate(94.312 54.284)">
						<line id="Line_76-20" class="st1" x1="-96" y1="6.6" x2="-127.2" y2="60.9"></line>
						<line id="Line_77-20" class="st1" x1="-148.1" y1="115.2" x2="-179.4" y2="60.9"></line>
						<line id="Line_78-20" class="st1" x1="-169" y1="60.9" x2="-137.7" y2="115.2"></line>
						<line id="Line_79-20" class="st1" x1="-127.2" y1="115.2" x2="-158.5" y2="60.9"></line>
						<line id="Line_80-20" class="st1" x1="-148.1" y1="60.9" x2="-116.8" y2="115.2"></line>
						<line id="Line_81-20" class="st1" x1="-106.4" y1="115.2" x2="-137.7" y2="60.9"></line>
						<line id="Line_82-20" class="st1" x1="-96" y1="115.2" x2="-127.2" y2="60.9"></line>
						<line id="Line_83-20" class="st1" x1="-189.8" y1="60.9" x2="-127.2" y2="60.9"></line>
						<line id="Line_84-20" class="st1" x1="-122" y1="51.9" x2="-184.6" y2="51.9"></line>
						<line id="Line_85-20" class="st1" x1="-116.8" y1="42.8" x2="-179.4" y2="42.8"></line>
						<line id="Line_86-20" class="st1" x1="-106.4" y1="24.7" x2="-169" y2="24.7"></line>
						<line id="Line_87-20" class="st1" x1="-174.2" y1="33.8" x2="-111.6" y2="33.8"></line>
						<line id="Line_88-20" class="st1" x1="-163.7" y1="15.7" x2="-101.2" y2="15.7"></line>
						<line id="Line_89-20" class="st1" x1="-69.9" y1="51.9" x2="-101.2" y2="106.1"></line>
						<line id="Line_90-20" class="st1" x1="-106.4" y1="97.1" x2="-75.1" y2="42.8"></line>
						<line id="Line_91-20" class="st1" x1="-80.3" y1="33.8" x2="-111.6" y2="88"></line>
						<line id="Line_92-20" class="st1" x1="-116.8" y1="79" x2="-85.5" y2="24.7"></line>
						<line id="Line_93-20" class="st1" x1="-90.7" y1="15.7" x2="-122" y2="70"></line>
						<path id="Path_1906-20" class="st1" d="M-158.6,6.6h62.7l31.3,54.3l-31.3,54.3h-62.7l-31.3-54.3L-158.6,6.6z"></path>
					</g>
				</g>
				<g id="Group_1909-3" transform="translate(0 216.81)">
					<g id="Group_1860-11">
						<line id="Line_76-21" class="st1" x1="281.3" y1="6.6" x2="250" y2="60.9"></line>
						<line id="Line_77-21" class="st1" x1="229.2" y1="115.2" x2="197.9" y2="60.9"></line>
						<line id="Line_78-21" class="st1" x1="208.3" y1="60.9" x2="239.6" y2="115.2"></line>
						<line id="Line_79-21" class="st1" x1="250" y1="115.2" x2="218.7" y2="60.9"></line>
						<line id="Line_80-21" class="st1" x1="229.2" y1="60.9" x2="260.4" y2="115.2"></line>
						<line id="Line_81-21" class="st1" x1="270.9" y1="115.2" x2="239.6" y2="60.9"></line>
						<line id="Line_82-21" class="st1" x1="281.3" y1="115.2" x2="250" y2="60.9"></line>
						<line id="Line_83-21" class="st1" x1="187.4" y1="60.9" x2="250" y2="60.9"></line>
						<line id="Line_84-21" class="st1" x1="255.2" y1="51.9" x2="192.6" y2="51.9"></line>
						<line id="Line_85-21" class="st1" x1="260.4" y1="42.8" x2="197.9" y2="42.8"></line>
						<line id="Line_86-21" class="st1" x1="270.9" y1="24.7" x2="208.3" y2="24.7"></line>
						<line id="Line_87-21" class="st1" x1="203.1" y1="33.8" x2="265.6" y2="33.8"></line>
						<line id="Line_88-21" class="st1" x1="213.5" y1="15.7" x2="276.1" y2="15.7"></line>
						<line id="Line_89-21" class="st1" x1="307.4" y1="51.9" x2="276.1" y2="106.1"></line>
						<line id="Line_90-21" class="st1" x1="270.9" y1="97.1" x2="302.1" y2="42.8"></line>
						<line id="Line_91-21" class="st1" x1="296.9" y1="33.8" x2="265.6" y2="88"></line>
						<line id="Line_92-21" class="st1" x1="260.4" y1="79" x2="291.7" y2="24.7"></line>
						<line id="Line_93-21" class="st1" x1="286.5" y1="15.7" x2="255.2" y2="70"></line>
						<path id="Path_1906-21" class="st1" d="M218.7,6.6h62.7l31.3,54.3l-31.3,54.3h-62.7l-31.3-54.3L218.7,6.6z"></path>
					</g>
					<g id="Group_1861-11" transform="translate(94.312 54.284)">
						<line id="Line_76-22" class="st1" x1="92.7" y1="6.6" x2="61.4" y2="60.9"></line>
						<line id="Line_77-22" class="st1" x1="40.5" y1="115.2" x2="9.2" y2="60.9"></line>
						<line id="Line_78-22" class="st1" x1="19.7" y1="60.9" x2="51" y2="115.2"></line>
						<line id="Line_79-22" class="st1" x1="61.4" y1="115.2" x2="30.1" y2="60.9"></line>
						<line id="Line_80-22" class="st1" x1="40.5" y1="60.9" x2="71.8" y2="115.2"></line>
						<line id="Line_81-22" class="st1" x1="82.2" y1="115.2" x2="51" y2="60.9"></line>
						<line id="Line_82-22" class="st1" x1="92.7" y1="115.2" x2="61.4" y2="60.9"></line>
						<line id="Line_83-22" class="st1" x1="-1.2" y1="60.9" x2="61.4" y2="60.9"></line>
						<line id="Line_84-22" class="st1" x1="66.6" y1="51.9" x2="4" y2="51.9"></line>
						<line id="Line_85-22" class="st1" x1="71.8" y1="42.8" x2="9.2" y2="42.8"></line>
						<line id="Line_86-22" class="st1" x1="82.2" y1="24.7" x2="19.7" y2="24.7"></line>
						<line id="Line_87-22" class="st1" x1="14.5" y1="33.8" x2="77" y2="33.8"></line>
						<line id="Line_88-22" class="st1" x1="24.9" y1="15.7" x2="87.5" y2="15.7"></line>
						<line id="Line_89-22" class="st1" x1="118.7" y1="51.9" x2="87.5" y2="106.1"></line>
						<line id="Line_90-22" class="st1" x1="82.2" y1="97.1" x2="113.5" y2="42.8"></line>
						<line id="Line_91-22" class="st1" x1="108.3" y1="33.8" x2="77" y2="88"></line>
						<line id="Line_92-22" class="st1" x1="71.8" y1="79" x2="103.1" y2="24.7"></line>
						<line id="Line_93-22" class="st1" x1="97.9" y1="15.7" x2="66.6" y2="70"></line>
						<path id="Path_1906-22" class="st1" d="M30,6.6h62.7L124,60.9l-31.3,54.3H30L-1.3,60.9L30,6.6z"></path>
					</g>
				</g>
				<g id="Group_1907-3" transform="translate(94.312 53.957)">
					<g id="Group_1860-12" transform="translate(0 0)">
						<line id="Line_76-23" class="st1" x1="92.7" y1="6.6" x2="61.4" y2="60.9"></line>
						<line id="Line_77-23" class="st1" x1="40.5" y1="115.2" x2="9.2" y2="60.9"></line>
						<line id="Line_78-23" class="st1" x1="19.7" y1="60.9" x2="51" y2="115.2"></line>
						<line id="Line_79-23" class="st1" x1="61.4" y1="115.2" x2="30.1" y2="60.9"></line>
						<line id="Line_80-23" class="st1" x1="40.5" y1="60.9" x2="71.8" y2="115.2"></line>
						<line id="Line_81-23" class="st1" x1="82.2" y1="115.2" x2="51" y2="60.9"></line>
						<line id="Line_82-23" class="st1" x1="92.7" y1="115.2" x2="61.4" y2="60.9"></line>
						<line id="Line_83-23" class="st1" x1="-1.2" y1="60.9" x2="61.4" y2="60.9"></line>
						<line id="Line_84-23" class="st1" x1="66.6" y1="51.9" x2="4" y2="51.9"></line>
						<line id="Line_85-23" class="st1" x1="71.8" y1="42.8" x2="9.2" y2="42.8"></line>
						<line id="Line_86-23" class="st1" x1="82.2" y1="24.7" x2="19.7" y2="24.7"></line>
						<line id="Line_87-23" class="st1" x1="14.5" y1="33.8" x2="77" y2="33.8"></line>
						<line id="Line_88-23" class="st1" x1="24.9" y1="15.7" x2="87.5" y2="15.7"></line>
						<line id="Line_89-23" class="st1" x1="118.7" y1="51.9" x2="87.5" y2="106.1"></line>
						<line id="Line_90-23" class="st1" x1="82.2" y1="97.1" x2="113.5" y2="42.8"></line>
						<line id="Line_91-23" class="st1" x1="108.3" y1="33.8" x2="77" y2="88"></line>
						<line id="Line_92-23" class="st1" x1="71.8" y1="79" x2="103.1" y2="24.7"></line>
						<line id="Line_93-23" class="st1" x1="97.9" y1="15.7" x2="66.6" y2="70"></line>
						<path id="Path_1906-23" class="st1" d="M30,6.6h62.7L124,60.9l-31.3,54.3H30L-1.3,60.9L30,6.6z"></path>
					</g>
					<g id="Group_1861-12" transform="translate(94.312 54.284)">
						<line id="Line_76-24" class="st1" x1="-96" y1="6.6" x2="-127.2" y2="60.9"></line>
						<line id="Line_77-24" class="st1" x1="-148.1" y1="115.2" x2="-179.4" y2="60.9"></line>
						<line id="Line_78-24" class="st1" x1="-169" y1="60.9" x2="-137.7" y2="115.2"></line>
						<line id="Line_79-24" class="st1" x1="-127.2" y1="115.2" x2="-158.5" y2="60.9"></line>
						<line id="Line_80-24" class="st1" x1="-148.1" y1="60.9" x2="-116.8" y2="115.2"></line>
						<line id="Line_81-24" class="st1" x1="-106.4" y1="115.2" x2="-137.7" y2="60.9"></line>
						<line id="Line_82-24" class="st1" x1="-96" y1="115.2" x2="-127.2" y2="60.9"></line>
						<line id="Line_83-24" class="st1" x1="-189.8" y1="60.9" x2="-127.2" y2="60.9"></line>
						<line id="Line_84-24" class="st1" x1="-122" y1="51.9" x2="-184.6" y2="51.9"></line>
						<line id="Line_85-24" class="st1" x1="-116.8" y1="42.8" x2="-179.4" y2="42.8"></line>
						<line id="Line_86-24" class="st1" x1="-106.4" y1="24.7" x2="-169" y2="24.7"></line>
						<line id="Line_87-24" class="st1" x1="-174.2" y1="33.8" x2="-111.6" y2="33.8"></line>
						<line id="Line_88-24" class="st1" x1="-163.7" y1="15.7" x2="-101.2" y2="15.7"></line>
						<line id="Line_89-24" class="st1" x1="-69.9" y1="51.9" x2="-101.2" y2="106.1"></line>
						<line id="Line_90-24" class="st1" x1="-106.4" y1="97.1" x2="-75.1" y2="42.8"></line>
						<line id="Line_91-24" class="st1" x1="-80.3" y1="33.8" x2="-111.6" y2="88"></line>
						<line id="Line_92-24" class="st1" x1="-116.8" y1="79" x2="-85.5" y2="24.7"></line>
						<line id="Line_93-24" class="st1" x1="-90.7" y1="15.7" x2="-122" y2="70"></line>
						<path id="Path_1906-24" class="st1" d="M-158.6,6.6h62.7l31.3,54.3l-31.3,54.3h-62.7l-31.3-54.3L-158.6,6.6z"></path>
					</g>
				</g>
			</g>
		</g>
	</g>
</g>
</svg>