<svg width="26" height="26" viewBox="0 0 26 26" fill="none" xmlns="http://www.w3.org/2000/svg">
<path d="M24.9511 10.5969C25.003 9.09485 24.6746 7.60406 23.9962 6.26293C23.5359 5.71263 22.8972 5.34127 22.1913 5.21355C19.2714 4.9486 16.3394 4.84001 13.4079 4.88824C10.4871 4.83782 7.56571 4.94291 4.65608 5.20305C4.08083 5.30769 3.54847 5.57752 3.12398 5.97959C2.17953 6.85058 2.0746 8.34071 1.96966 9.59997C1.81741 11.8641 1.81741 14.1359 1.96966 16.4C2.00002 17.1087 2.10555 17.8123 2.28447 18.4987C2.411 19.0287 2.667 19.5191 3.02953 19.9259C3.45691 20.3493 4.00167 20.6344 4.59312 20.7444C6.8555 21.0237 9.13507 21.1394 11.4141 21.0907C15.0869 21.1432 18.3085 21.0907 22.1178 20.7969C22.7238 20.6937 23.2839 20.4081 23.7234 19.9784C24.0171 19.6844 24.2366 19.3247 24.3635 18.929C24.7388 17.7774 24.9231 16.5722 24.9092 15.3611C24.9511 14.7734 24.9511 11.2265 24.9511 10.5969ZM11.0363 15.9907V9.49503L17.2487 12.7586C15.5067 13.724 13.2085 14.8154 11.0363 15.9907Z" fill="white"/>
</svg>
